<?xml version="1.0" encoding="UTF-8" standalone="no"?><!DOCTYPE svg PUBLIC "-//W3C//DTD SVG 1.1//EN" "http://www.w3.org/Graphics/SVG/1.1/DTD/svg11.dtd"><svg width="100%" height="100%" viewBox="0 0 50 34" version="1.1" xmlns="http://www.w3.org/2000/svg" xmlns:xlink="http://www.w3.org/1999/xlink" xml:space="preserve" xmlns:serif="http://www.serif.com/" style="fill-rule:evenodd;clip-rule:evenodd;stroke-linecap:round;stroke-linejoin:round;stroke-miterlimit:1.5;"><g id="Syntax-Highlighting" serif:id="Syntax Highlighting"><path d="M49,3c0,-1.104 -0.896,-2 -2,-2l-44,0c-1.104,0 -2,0.896 -2,2l0,28c0,1.104 0.896,2 2,2l44,0c1.104,0 2,-0.896 2,-2l0,-28Z" style="fill:#b3b3b3;"/><path d="M1,8l0,23c0,1.104 0.896,2 2,2l44,0c1.104,-0 2,-0.896 2,-2l0,-23l-32,0l0,-2.118c0,-1.039 -0.843,-1.882 -1.882,-1.882l-8.236,-0c-1.039,-0 -1.882,0.843 -1.882,1.882l0,2.118l-4,0Z" style="fill:#fff;"/><path d="M33,22l7,0" style="fill:none;stroke:#666;stroke-width:2px;"/><path d="M20,27l7,0" style="fill:none;stroke:#666;stroke-width:2px;"/><path d="M6,12l5,0" style="fill:none;stroke:#c695c6;stroke-width:2px;"/><path d="M12,17l4,0" style="fill:none;stroke:#c695c6;stroke-width:2px;"/><path d="M15,12l10,0" style="fill:none;stroke:#f9ae58;stroke-width:2px;"/><path d="M30,17l4,0" style="fill:none;stroke:#f9ae58;stroke-width:2px;"/><path d="M28,22l1,0" style="fill:none;stroke:#f97b58;stroke-width:2px;"/><path d="M31,27l1,0" style="fill:none;stroke:#f97b58;stroke-width:2px;"/><path d="M20,22l4,0" style="fill:none;stroke:#ec5f66;stroke-width:2px;"/><path d="M38,17l6,0" style="fill:none;stroke:#f9ae58;stroke-width:2px;"/><path d="M29,12l8,0" style="fill:none;stroke:#5fb4b4;stroke-width:2px;"/><path d="M20,17l6,0" style="fill:none;stroke:#69c;stroke-width:2px;"/><path d="M36,27l8,0" style="fill:none;stroke:#69c;stroke-width:2px;"/><path d="M50,3c-0,-1.656 -1.344,-3 -3,-3c-0,0 -44,0 -44,0c-1.656,0 -3,1.344 -3,3l-0,28c-0,1.656 1.344,3 3,3c0,0 44,0 44,0c1.656,0 3,-1.344 3,-3c-0,0 -0,-28 -0,-28Zm-2,0l-0,28c-0,0.552 -0.448,1 -1,1l-44,-0c-0.552,-0 -1,-0.448 -1,-1c-0,0 -0,-28 -0,-28c-0,-0.552 0.448,-1 1,-1l44,0c0.552,0 1,0.448 1,1Z" style="fill:#666;"/></g></svg>