<?xml version="1.0" encoding="UTF-8" standalone="no"?><!DOCTYPE svg PUBLIC "-//W3C//DTD SVG 1.1//EN" "http://www.w3.org/Graphics/SVG/1.1/DTD/svg11.dtd"><svg width="100%" height="100%" viewBox="0 0 50 34" version="1.1" xmlns="http://www.w3.org/2000/svg" xmlns:xlink="http://www.w3.org/1999/xlink" xml:space="preserve" xmlns:serif="http://www.serif.com/" style="fill-rule:evenodd;clip-rule:evenodd;stroke-linecap:round;stroke-linejoin:round;stroke-miterlimit:1.5;"><g id="Auto-Complete" serif:id="Auto Complete"><path d="M49,2.882c0,-1.039 -0.843,-1.882 -1.882,-1.882l-44.236,0c-1.039,0 -1.882,0.843 -1.882,1.882l0,28.236c0,1.039 0.843,1.882 1.882,1.882l44.236,0c1.039,0 1.882,-0.843 1.882,-1.882l0,-28.236Z" style="fill:#fff;stroke:#666;stroke-width:2px;"/><rect x="5" y="15" width="28" height="14" style="fill:#fff;"/><path d="M32,16l-26,-0l0,11c0,0.552 0.448,1 1,1l24,-0c0.552,-0 1,-0.448 1,-1l0,-11Z" style="fill:#d8d8d8;"/><rect x="6" y="20" width="26" height="4" style="fill:#b2b2b2;"/><g id="I-Beam" serif:id="I Beam"><path d="M14,4.481l0,8" style="fill:none;stroke:#666;stroke-width:1px;stroke-linecap:square;stroke-linejoin:miter;"/></g><path id="A" d="M9.869,9.172l-0.892,-2.895l-0.916,2.895l1.808,-0Zm0.342,1.096l-2.487,-0l-0.546,1.732l-1.205,-0l2.335,-7l1.348,-0l2.344,7l-1.262,-0l-0.527,-1.732Z" style="fill-rule:nonzero;"/></g></svg>