<?xml version="1.0" encoding="UTF-8" standalone="no"?><!DOCTYPE svg PUBLIC "-//W3C//DTD SVG 1.1//EN" "http://www.w3.org/Graphics/SVG/1.1/DTD/svg11.dtd"><svg width="100%" height="100%" viewBox="0 0 50 34" version="1.1" xmlns="http://www.w3.org/2000/svg" xmlns:xlink="http://www.w3.org/1999/xlink" xml:space="preserve" xmlns:serif="http://www.serif.com/" style="fill-rule:evenodd;clip-rule:evenodd;stroke-linejoin:round;stroke-miterlimit:2;"><g id="Dark-Mode" serif:id="Dark Mode"><path d="M49,3c0,-1.104 -0.896,-2 -2,-2l-44,0c-1.104,0 -2,0.896 -2,2l0,28c0,1.104 0.896,2 2,2l44,0c1.104,0 2,-0.896 2,-2l0,-28Z" style="fill:#b3b3b3;"/><path d="M1,8l0,23c0,1.104 0.896,2 2,2l44,0c1.104,-0 2,-0.896 2,-2l0,-23l-32,0l0,-2.118c0,-1.039 -0.843,-1.882 -1.882,-1.882l-8.236,-0c-1.039,-0 -1.882,0.843 -1.882,1.882l0,2.118l-4,0Z" style="fill:#fff;"/><path d="M49,3c0,-1.104 -0.896,-2 -2,-2l-44,0c-1.104,0 -2,0.896 -2,2l0,28c0,1.104 0.896,2 2,2l44,0c1.104,0 2,-0.896 2,-2l0,-28Z" style="fill:#989898;"/><path d="M1,8l0,23c0,1.104 0.896,2 2,2l44,0c1.104,-0 2,-0.896 2,-2l0,-23l-32,0l0,-2.118c0,-1.039 -0.843,-1.882 -1.882,-1.882l-8.236,-0c-1.039,-0 -1.882,0.843 -1.882,1.882l0,2.118l-4,0Z" style="fill:#4e4e4e;"/><path d="M50,3c-0,-1.656 -1.344,-3 -3,-3c-0,0 -44,0 -44,0c-1.656,0 -3,1.344 -3,3l-0,28c-0,1.656 1.344,3 3,3c0,0 44,0 44,0c1.656,0 3,-1.344 3,-3c-0,0 -0,-28 -0,-28Zm-2,0l-0,28c-0,0.552 -0.448,1 -1,1l-44,-0c-0.552,-0 -1,-0.448 -1,-1c-0,0 -0,-28 -0,-28c-0,-0.552 0.448,-1 1,-1l44,0c0.552,0 1,0.448 1,1Z" style="fill:#666;"/><path d="M24.89,12c-1.945,2.494 -2.299,6.019 -0.622,8.925c1.678,2.906 4.908,4.361 8.04,3.924c-0.614,0.789 -1.388,1.474 -2.306,2.004c-3.825,2.208 -8.722,0.896 -10.93,-2.928c-2.208,-3.824 -0.896,-8.721 2.928,-10.929c0.919,-0.531 1.899,-0.858 2.89,-0.996Z" style="fill:#fff;"/></g></svg>