<?xml version="1.0" encoding="UTF-8" standalone="no"?><!DOCTYPE svg PUBLIC "-//W3C//DTD SVG 1.1//EN" "http://www.w3.org/Graphics/SVG/1.1/DTD/svg11.dtd"><svg width="100%" height="100%" viewBox="0 0 50 34" version="1.1" xmlns="http://www.w3.org/2000/svg" xmlns:xlink="http://www.w3.org/1999/xlink" xml:space="preserve" xmlns:serif="http://www.serif.com/" style="fill-rule:evenodd;clip-rule:evenodd;stroke-linecap:round;stroke-linejoin:round;stroke-miterlimit:1.5;"><g id="GPU"><path d="M49,5.882c0,-1.039 -0.843,-1.882 -1.882,-1.882l-42.118,0l0,24l42.118,-0c1.039,-0 1.882,-0.843 1.882,-1.882l0,-20.236Z" style="fill:#e5e5e5;stroke:#666;stroke-width:2px;"/><rect x="17" y="28" width="18" height="4" style="fill:#fff;stroke:#666;stroke-width:2px;"/><path d="M1,1l3.979,-0l0,32" style="fill:none;stroke:#676767;stroke-width:2px;"/><circle cx="37" cy="15.965" r="8" style="fill:#fff;"/><circle cx="17" cy="15.965" r="8" style="fill:#fff;"/><g><path d="M37,16c0,0 1.422,-4.342 5.703,-5.644" style="fill:none;stroke:#7e7e7e;stroke-width:2px;"/><path d="M37,16c-0,-0 -3.049,-3.402 -2.036,-7.76" style="fill:none;stroke:#7e7e7e;stroke-width:2px;"/><path d="M37,16c-0,-0 -4.471,0.939 -7.739,-2.117" style="fill:none;stroke:#7e7e7e;stroke-width:2px;"/><path d="M37,16c-0,-0 -1.422,4.342 -5.703,5.644" style="fill:none;stroke:#7e7e7e;stroke-width:2px;"/><path d="M37,16c0,0 3.049,3.402 2.036,7.76" style="fill:none;stroke:#7e7e7e;stroke-width:2px;"/><path d="M37,16c0,0 4.471,-0.939 7.739,2.117" style="fill:none;stroke:#7e7e7e;stroke-width:2px;"/></g><g><path d="M17,16c0,0 1.422,-4.342 5.703,-5.644" style="fill:none;stroke:#7f7f7f;stroke-width:2px;"/><path d="M17,16c-0,-0 -3.049,-3.402 -2.036,-7.76" style="fill:none;stroke:#7f7f7f;stroke-width:2px;"/><path d="M17,16c-0,-0 -4.471,0.939 -7.739,-2.117" style="fill:none;stroke:#7f7f7f;stroke-width:2px;"/><path d="M17,16c-0,-0 -1.422,4.342 -5.703,5.644" style="fill:none;stroke:#7f7f7f;stroke-width:2px;"/><path d="M17,16c0,0 3.049,3.402 2.036,7.76" style="fill:none;stroke:#7f7f7f;stroke-width:2px;"/><path d="M17,16c0,0 4.471,-0.939 7.739,2.117" style="fill:none;stroke:#7f7f7f;stroke-width:2px;"/></g><circle cx="37" cy="15.965" r="8" style="fill:none;stroke:#4e4e4e;stroke-width:2px;"/><circle cx="17" cy="15.965" r="8" style="fill:none;stroke:#4e4e4e;stroke-width:2px;"/><circle cx="17" cy="15.965" r="3" style="fill:#808080;"/><circle cx="37" cy="15.965" r="3" style="fill:#808080;"/></g></svg>