<?xml version="1.0" encoding="UTF-8" standalone="no"?><!DOCTYPE svg PUBLIC "-//W3C//DTD SVG 1.1//EN" "http://www.w3.org/Graphics/SVG/1.1/DTD/svg11.dtd"><svg width="100%" height="100%" viewBox="0 0 50 34" version="1.1" xmlns="http://www.w3.org/2000/svg" xmlns:xlink="http://www.w3.org/1999/xlink" xml:space="preserve" xmlns:serif="http://www.serif.com/" style="fill-rule:evenodd;clip-rule:evenodd;stroke-linejoin:round;stroke-miterlimit:2;"><g id="Tab-Multi-Select" serif:id="Tab Multi-Select"><path d="M49,3c0,-1.104 -0.896,-2 -2,-2l-44,0c-1.104,0 -2,0.896 -2,2l0,28c0,1.104 0.896,2 2,2l44,0c1.104,0 2,-0.896 2,-2l0,-28Z" style="fill:#b2b2b2;"/><path d="M25,12l-0,21l22,0c1.104,0 2,-0.896 2,-2l-0,-23l-16,0l0,-2.118c0,-1.039 -0.843,-1.882 -1.882,-1.882l-8.236,-0c-1.039,-0 -1.882,0.843 -1.882,1.882l0,4.236c0,1.039 0.843,1.882 1.882,1.882l2.118,-0Z" style="fill:#e5e5e5;"/><path d="M5,8l-4,0l0,23c0,1.104 0.896,2 2,2l24,0l0,-25l-10,0l0,-2.118c0,-1.039 -0.843,-1.882 -1.882,-1.882l-8.236,-0c-1.039,-0 -1.882,0.843 -1.882,1.882l0,2.118Z" style="fill:#fff;"/><path d="M50,3c0,-1.656 -1.344,-3 -3,-3c-0,0 -44,0 -44,0c-1.656,0 -3,1.344 -3,3c0,-0 0,28 0,28c0,1.656 1.344,3 3,3c0,0 44,0 44,0c1.656,0 3,-1.344 3,-3l0,-28Zm-2,-0l0,28c0,0.552 -0.448,1 -1,1l-44,-0c-0.552,-0 -1,-0.448 -1,-1l0,-28c0,-0.552 0.448,-1 1,-1l44,0c0.552,0 1,0.448 1,1Z" style="fill:#666;"/></g></svg>