<?xml version="1.0" encoding="UTF-8" standalone="no"?><!DOCTYPE svg PUBLIC "-//W3C//DTD SVG 1.1//EN" "http://www.w3.org/Graphics/SVG/1.1/DTD/svg11.dtd"><svg width="100%" height="100%" viewBox="0 0 50 34" version="1.1" xmlns="http://www.w3.org/2000/svg" xmlns:xlink="http://www.w3.org/1999/xlink" xml:space="preserve" xmlns:serif="http://www.serif.com/" style="fill-rule:evenodd;clip-rule:evenodd;stroke-linecap:round;stroke-linejoin:round;stroke-miterlimit:1.5;"><g id="CPUs"><path d="M26,2.882c0,-1.039 -0.843,-1.882 -1.882,-1.882l-21.236,0c-1.039,0 -1.882,0.843 -1.882,1.882l0,21.236c0,1.039 0.843,1.882 1.882,1.882l21.236,-0c1.039,-0 1.882,-0.843 1.882,-1.882l0,-21.236Z" style="fill:#fff;stroke:#666;stroke-width:2px;"/><path d="M49,9.882c-0,-1.039 -0.843,-1.882 -1.882,-1.882l-21.236,0c-1.039,0 -1.882,0.843 -1.882,1.882l-0,21.236c-0,1.039 0.843,1.882 1.882,1.882l21.236,0c1.039,0 1.882,-0.843 1.882,-1.882l-0,-21.236Z" style="fill:#fff;stroke:#666;stroke-width:2px;"/><g><path id="path4" d="M19.754,16.853c-0.208,0.486 -0.466,0.948 -0.769,1.381c-0.402,0.576 -0.732,0.972 -0.984,1.195c-0.396,0.36 -0.816,0.546 -1.267,0.558c-0.324,-0 -0.714,-0.09 -1.17,-0.282c-0.399,-0.173 -0.827,-0.267 -1.261,-0.276c-0.446,0.008 -0.886,0.101 -1.296,0.276c-0.463,0.186 -0.835,0.282 -1.123,0.294c-0.432,0.018 -0.864,-0.174 -1.297,-0.576c-0.276,-0.241 -0.618,-0.655 -1.032,-1.237c-0.465,-0.667 -0.833,-1.397 -1.093,-2.167c-0.306,-0.889 -0.462,-1.747 -0.462,-2.581c0,-0.955 0.204,-1.777 0.618,-2.468c0.313,-0.541 0.76,-0.994 1.297,-1.314c0.529,-0.32 1.135,-0.492 1.753,-0.499c0.342,0 0.798,0.108 1.357,0.319c0.558,0.21 0.918,0.318 1.074,0.318c0.12,-0 0.516,-0.126 1.195,-0.372c0.64,-0.229 1.18,-0.325 1.62,-0.289c1.201,0.096 2.102,0.571 2.702,1.423c-1.075,0.648 -1.603,1.561 -1.591,2.725c0.012,0.913 0.342,1.669 0.991,2.27c0.288,0.271 0.621,0.49 0.984,0.648c-0.072,0.228 -0.156,0.444 -0.246,0.654Zm-2.749,-10.817c-0,0.714 -0.259,1.381 -0.781,1.993c-0.624,0.732 -1.387,1.152 -2.203,1.086c-0.013,-0.089 -0.019,-0.179 -0.018,-0.27c0,-0.684 0.3,-1.416 0.828,-2.017c0.281,-0.319 0.624,-0.576 1.009,-0.756c0.358,-0.185 0.75,-0.295 1.152,-0.324c0.006,0.096 0.013,0.192 0.013,0.288Z" style="fill-rule:nonzero;"/></g><g><path d="M29.119,20.285l-0.339,-1.276l-0.35,1.276l0.689,0Zm0.233,0.883l-1.165,0l-0.223,0.81l-0.964,0l1.241,-3.996l1.089,0l1.241,3.996l-1.003,0l-0.216,-0.81Z" style="fill-rule:nonzero;"/><path d="M32.996,19.564l-0,-0.598c-0,-0.074 -0.039,-0.111 -0.117,-0.111l-0.891,-0l-0,0.82l0.891,0c0.078,0 0.117,-0.037 0.117,-0.111Zm-1.008,0.984l-0,1.419l-0.932,0l-0,-3.996l2.091,0c0.23,0 0.417,0.074 0.561,0.222c0.145,0.149 0.216,0.337 0.214,0.567l0,1.005c0,0.17 -0.044,0.321 -0.133,0.455c-0.088,0.134 -0.206,0.228 -0.355,0.282l0.605,1.476l-0.987,-0.011l-0.571,-1.419l-0.493,-0Z" style="fill-rule:nonzero;"/><path d="M38.539,17.982l-0,3.996l-0.881,0l0,-2.408l-0.745,1.769l-0.647,-0l-0.745,-1.769l-0,2.408l-0.881,0l0,-3.996l1.003,0l0.948,2.159l0.945,-2.159l1.003,0Z" style="fill-rule:nonzero;"/><path d="M41.045,21.125c0.106,-0 0.161,-0.052 0.162,-0.157l0,-0.52c0,-0.103 -0.054,-0.156 -0.162,-0.158l-0.282,0c-0.173,0 -0.351,0.049 -0.534,0.147l-0.048,0.027l-0.006,0.504c0,0.103 0.053,0.155 0.16,0.157l0.71,-0Zm-0.033,-2.276l-0.672,0c-0.106,0 -0.159,0.052 -0.159,0.155l-0,0.867l0.048,-0.068c0.204,-0.226 0.421,-0.339 0.651,-0.339l0.471,0c0.218,0 0.407,0.08 0.566,0.239c0.159,0.158 0.239,0.344 0.239,0.555l-0,0.943c-0,0.218 -0.079,0.406 -0.236,0.563c-0.157,0.157 -0.347,0.236 -0.569,0.236l-1.298,-0c-0.222,-0 -0.412,-0.079 -0.569,-0.236c-0.157,-0.157 -0.235,-0.345 -0.235,-0.563l-0,-2.441c-0,-0.219 0.079,-0.408 0.238,-0.567c0.159,-0.158 0.348,-0.238 0.566,-0.238l1.257,0c0.219,0 0.408,0.08 0.567,0.238c0.158,0.159 0.238,0.348 0.238,0.567l-0,0.382l-0.932,-0l-0.011,-0.138c-0.011,-0.103 -0.064,-0.155 -0.16,-0.155Z" style="fill-rule:nonzero;"/><path d="M44.545,20.421l0,-1.29l-0.921,1.29l0.921,-0Zm1.455,0.826l-0.555,-0l-0,0.731l-0.9,0l0,-0.731l-1.758,-0l-0.201,-0.705l1.864,-2.56l0.995,0l-0,2.439l0.555,-0l0,0.826Z" style="fill-rule:nonzero;"/></g></g></svg>