<?xml version="1.0" encoding="UTF-8" standalone="no"?><!DOCTYPE svg PUBLIC "-//W3C//DTD SVG 1.1//EN" "http://www.w3.org/Graphics/SVG/1.1/DTD/svg11.dtd"><svg width="100%" height="100%" viewBox="0 0 34 34" version="1.1" xmlns="http://www.w3.org/2000/svg" xmlns:xlink="http://www.w3.org/1999/xlink" xml:space="preserve" xmlns:serif="http://www.serif.com/" style="fill-rule:evenodd;clip-rule:evenodd;stroke-linejoin:round;stroke-miterlimit:2;"><g id="Python-API" serif:id="Python API"><path id="top" d="M16.614,0c-1.387,0.007 -2.711,0.125 -3.876,0.331c-3.432,0.607 -4.056,1.876 -4.056,4.217l0,3.091l8.112,-0l-0,1.03l-11.156,0c-2.357,0 -4.421,1.417 -5.067,4.113c-0.745,3.089 -0.778,5.017 0,8.243c0.577,2.402 1.954,4.113 4.311,4.113l2.789,-0l-0,-3.706c-0,-2.677 2.316,-5.039 5.067,-5.039l8.102,0c2.255,0 4.056,-1.857 4.056,-4.122l-0,-7.723c-0,-2.199 -1.855,-3.85 -4.056,-4.217c-1.394,-0.232 -2.839,-0.337 -4.226,-0.331Z" style="fill:#808080;fill-rule:nonzero;"/><path id="bottom" d="M25.907,8.669l0,3.602c0,2.793 -2.367,5.143 -5.067,5.143l-8.102,0c-2.219,0 -4.056,1.899 -4.056,4.122l0,7.724c0,2.198 1.912,3.491 4.056,4.122c2.568,0.755 5.03,0.891 8.102,-0c2.042,-0.592 4.056,-1.782 4.056,-4.122l-0,-3.092l-8.102,0l-0,-1.03l12.157,-0c2.358,-0 3.236,-1.644 4.056,-4.113c0.847,-2.54 0.811,-4.984 -0,-8.243c-0.583,-2.347 -1.695,-4.113 -4.056,-4.113l-3.044,0Z" style="fill:#c0c0c0;fill-rule:nonzero;"/><ellipse cx="21.331" cy="29.721" rx="1.5" ry="1.496" style="fill:#3e3e3e;"/><ellipse cx="12.236" cy="3.998" rx="1.5" ry="1.496" style="fill:#3e3e3e;"/></g></svg>