<?xml version="1.0" encoding="UTF-8" standalone="no"?><!DOCTYPE svg PUBLIC "-//W3C//DTD SVG 1.1//EN" "http://www.w3.org/Graphics/SVG/1.1/DTD/svg11.dtd"><svg width="100%" height="100%" viewBox="0 0 34 34" version="1.1" xmlns="http://www.w3.org/2000/svg" xmlns:xlink="http://www.w3.org/1999/xlink" xml:space="preserve" xmlns:serif="http://www.serif.com/" style="fill-rule:evenodd;clip-rule:evenodd;stroke-linejoin:round;stroke-miterlimit:2;"><g id="TypeScript"><path d="M33,4.125c0,-1.725 -1.4,-3.125 -3.125,-3.125l-25.75,0c-1.725,0 -3.125,1.4 -3.125,3.125l0,25.75c0,1.725 1.4,3.125 3.125,3.125l25.75,0c1.725,0 3.125,-1.4 3.125,-3.125l0,-25.75Z" style="fill:none;stroke:#676767;stroke-width:2px;"/><path d="M20.809,26.464l-0,3.129c0.508,0.261 1.11,0.456 1.804,0.586c0.695,0.131 1.427,0.196 2.196,0.196c0.75,-0 1.463,-0.072 2.138,-0.215c0.674,-0.144 1.266,-0.38 1.775,-0.709c0.509,-0.329 0.911,-0.759 1.208,-1.291c0.297,-0.531 0.445,-1.188 0.445,-1.97c-0,-0.567 -0.085,-1.064 -0.254,-1.491c-0.17,-0.427 -0.414,-0.806 -0.734,-1.139c-0.319,-0.332 -0.703,-0.631 -1.149,-0.895c-0.447,-0.264 -0.951,-0.513 -1.512,-0.748c-0.41,-0.169 -0.779,-0.334 -1.105,-0.493c-0.326,-0.16 -0.603,-0.323 -0.831,-0.489c-0.229,-0.166 -0.405,-0.342 -0.528,-0.528c-0.124,-0.186 -0.186,-0.396 -0.186,-0.631c-0,-0.215 0.055,-0.409 0.166,-0.582c0.111,-0.172 0.267,-0.321 0.469,-0.444c0.203,-0.124 0.45,-0.22 0.744,-0.289c0.293,-0.068 0.619,-0.103 0.978,-0.103c0.261,0 0.536,0.02 0.827,0.059c0.29,0.039 0.582,0.1 0.875,0.181c0.293,0.081 0.579,0.184 0.856,0.308c0.277,0.124 0.533,0.267 0.768,0.43l-0,-2.923c-0.476,-0.183 -0.996,-0.318 -1.56,-0.406c-0.564,-0.088 -1.212,-0.132 -1.942,-0.132c-0.743,-0 -1.448,0.08 -2.113,0.24c-0.665,0.159 -1.25,0.409 -1.756,0.747c-0.505,0.339 -0.904,0.771 -1.198,1.296c-0.293,0.525 -0.44,1.152 -0.44,1.882c-0,0.932 0.269,1.728 0.807,2.386c0.538,0.658 1.355,1.216 2.45,1.672c0.431,0.176 0.832,0.349 1.203,0.518c0.372,0.17 0.693,0.346 0.964,0.528c0.27,0.183 0.484,0.381 0.641,0.596c0.156,0.216 0.234,0.46 0.234,0.734c0,0.202 -0.049,0.389 -0.146,0.562c-0.098,0.173 -0.247,0.323 -0.446,0.45c-0.198,0.127 -0.446,0.226 -0.743,0.298c-0.297,0.072 -0.644,0.108 -1.042,0.108c-0.678,-0 -1.349,-0.119 -2.015,-0.357c-0.665,-0.238 -1.281,-0.595 -1.848,-1.071Zm-5.26,-7.709l4.013,0l0,-2.568l-11.187,0l-0,2.568l3.994,0l0,11.432l3.18,0l-0,-11.432Z" style="fill:#4e4e4e;"/></g></svg>